<svg xmlns="http://www.w3.org/2000/svg" viewBox="0 0 500 500"><defs></defs><title>Asset 1</title><g id="Layer_2" data-name="Layer 2"><g id="Layer_1-2" data-name="Layer 1"><path class="cls-1" d="M0,0V500H500V0ZM101.06,413.44h-36a12.14,12.14,0,0,1-10.91-6.13,9.4,9.4,0,0,1,.62-9.9l154.69-226.6a12.93,12.93,0,0,1,20.61,0L336,325.65a9.44,9.44,0,0,1,.6,9.92,12.07,12.07,0,0,1-10.9,6.12l-35.94,0a12.61,12.61,0,0,1-10.32-5.1L255.94,302.2a4.62,4.62,0,0,0-3.74-1.7,4.54,4.54,0,0,0-3.75,1.74l-7.93,11.62a9.45,9.45,0,0,1-7.93,4,10.61,10.61,0,0,1-4.61-1.06,9.08,9.08,0,0,1-3.34-2.89l-21.58-31.56a3.23,3.23,0,0,0-2.84-1.39,3.32,3.32,0,0,0-2.74,1.22L111.35,408.31A12.47,12.47,0,0,1,101.06,413.44ZM440.81,378.8c-11.21,21.27-35.16,34.49-62.51,34.51l-212.43.1a4.38,4.38,0,0,1-3.94-2.3,4,4,0,0,1,.25-4.07L187,370.75a11.73,11.73,0,0,1,9.67-4.8l160.61-.08c10.25,0,19.19-4.88,23.32-12.7a17.66,17.66,0,0,0-1.2-18.76L242.26,134a9.68,9.68,0,0,1,0-11.14l22.83-33.46a6.68,6.68,0,0,1,10.73,0L437.45,325.69C448.72,342.15,449.94,361.49,440.81,378.8Z"/></g></g></svg>