<svg xmlns="http://www.w3.org/2000/svg" viewBox="0 0 500 500"><defs></defs><title>Asset 3</title><g id="Layer_2" data-name="Layer 2"><g id="Layer_1-2" data-name="Layer 1"><path class="cls-1" d="M0,0V500H500V0ZM117.89,400l-.55.33a11.83,11.83,0,0,1-4,1.4l-.33,0a4.38,4.38,0,0,1-.52,0l-.21,0a5.14,5.14,0,0,1-.88.05H77.92a11.9,11.9,0,0,1-4-.65l-.23-.07c-.12,0-.22-.08-.38-.13a10.36,10.36,0,0,1-5-4,3.17,3.17,0,0,1-.27-.47l-.26-.55-.06,0a8.34,8.34,0,0,1,.72-8.6l144-210.95a10.5,10.5,0,0,1,3.38-3.08l.15-.09.24-.12.19-.09a12.16,12.16,0,0,1,5.46-1.28H222a6.58,6.58,0,0,1,.71,0A11.65,11.65,0,0,1,229,174a2,2,0,0,0,.33.26l.21.17a9.14,9.14,0,0,1,1.77,2l98.65,144.2a5.66,5.66,0,0,1,.56.94c.09.17.17.37.27.59a8.33,8.33,0,0,1-.33,7.42,10.07,10.07,0,0,1-3.73,3.91l-.19.1-.2.12-.16.09a11.67,11.67,0,0,1-4.64,1.29,3.77,3.77,0,0,1-.57,0H287a12.82,12.82,0,0,1-4.6-.89c-.13,0-.26-.12-.43-.2a10.73,10.73,0,0,1-4.37-3.55l-21.89-32a4.56,4.56,0,0,0-3.72-1.69,4,4,0,0,0-1.42.25,3.54,3.54,0,0,0-2.19,1.5L241,309.29a6.77,6.77,0,0,1-1.41,1.52l-.18.16-.13.09-.21.13a8.58,8.58,0,0,1-4,1.6,6.43,6.43,0,0,1-.79,0,2.06,2.06,0,0,1-.35,0,11.14,11.14,0,0,1-1.16,0l-.28-.05a2,2,0,0,1-.42-.07l-.17,0a8.11,8.11,0,0,1-3.73-1.76l-.2-.14-.17-.14-.12-.12a6.46,6.46,0,0,1-1.07-1.24l-20.16-29.46a3.27,3.27,0,0,0-2.77-1.28,3.38,3.38,0,0,0-2.75,1.27L120.8,397.22A9.85,9.85,0,0,1,117.89,400Zm314.89-47.26c0,.49-.13,1-.21,1.42l0,.21c0,.2,0,.39-.07.57l-.23,1.37a46,46,0,0,1-2.76,9c-.08.23-.18.45-.3.74-.47,1.14-1,2.32-1.74,3.69s-1.44,2.55-2.16,3.73a2,2,0,0,1-.25.34l-.17.25a55.92,55.92,0,0,1-4.65,6.16l-.51.57a56.34,56.34,0,0,1-5.28,5.17c-.12.08-.23.18-.35.27a1.14,1.14,0,0,1-.16.14l-.14.12a55.83,55.83,0,0,1-5.95,4.38l-.19.11a1.77,1.77,0,0,1-.32.21l-.41.24,0,.06c-.36.23-.73.45-1.18.7l-1.29.75-.26.15c-1.07.59-2.21,1.18-3.4,1.74l-.65.32a66.9,66.9,0,0,1-7.19,2.85,11.43,11.43,0,0,1-1.3.4,61.7,61.7,0,0,1-6.93,1.8l-.18.05-.55.11c-1,.19-2,.39-3,.52l-1,.15c-1.38.2-2.82.36-4.26.44l-.2,0-.65,0c-1.43.12-2.91.18-4.39.18h-.22c-.2,0-.43,0-.63,0l-197.82.1a3.87,3.87,0,0,1-2.49-.87l-.41-.37a3.14,3.14,0,0,1-.56-.79,3.43,3.43,0,0,1,.19-3.55l23.05-33.77a8.41,8.41,0,0,1,1.63-1.82,1.39,1.39,0,0,1,.27-.21l.26-.2a11,11,0,0,1,5.5-2.09,3.86,3.86,0,0,1,.58,0l150.09-.09c.65,0,1.25,0,1.8-.07a11,11,0,0,0,1.74-.17,26.1,26.1,0,0,0,8.45-2.41l.7-.34a20.91,20.91,0,0,0,4.12-2.77,21.25,21.25,0,0,0,3.43-3.57l.89-1.33a9.3,9.3,0,0,0,.75-1.29A16.54,16.54,0,0,0,373,343a16.08,16.08,0,0,0,.68-3.61c0-.45,0-.88,0-1.37a16.83,16.83,0,0,0-2.26-8.17c-.15-.29-.31-.57-.52-.9L243,141.81a8.71,8.71,0,0,1-.78-8.7,2.32,2.32,0,0,1,.25-.51c.17-.32.36-.63.53-.89l21.28-31.16a5.22,5.22,0,0,1,2.85-2.08l1.91-.33a5.78,5.78,0,0,1,4.8,2.41L424.4,320.67c.13.17.24.36.36.54l.32.48c.1.16.2.32.3.46a53.65,53.65,0,0,1,3.92,7.43,4.22,4.22,0,0,1,.18.45l.06.19a46.08,46.08,0,0,1,2.71,8.91c0,.26.09.54.14.81l.15.88.08.66c.08.49.13,1,.19,1.47a47.12,47.12,0,0,1,.25,4.76A44.28,44.28,0,0,1,432.78,352.72Z"/></g></g></svg>