<?xml version="1.0" encoding="utf-8"?>
<!-- Generator: Adobe Illustrator 23.0.1, SVG Export Plug-In . SVG Version: 6.00 Build 0)  -->
<svg version="1.1" id="Layer_1" xmlns="http://www.w3.org/2000/svg" xmlns:xlink="http://www.w3.org/1999/xlink" x="0px" y="0px"
	 viewBox="0 0 500 500" style="enable-background:new 0 0 500 500;" xml:space="preserve">
<style type="text/css">
	.st0{fill:#FFFFFF;}
</style>
<g>
	<path class="st0" d="M173.82,140.75c-0.48,1.91-0.24,3.58,0.72,5.25c1.43,2.15,3.82,3.1,6.45,2.87c2.63,0,5.25-0.72,7.4-2.39
		c2.15-1.43,3.82-3.58,4.54-5.97c0.72-1.67,0.72-3.58,0-5.25c-1.19-1.91-2.63-3.82-4.3-5.25c2.63-1.19,4.78-2.63,6.93-4.54
		c0.96-1.19,1.91-2.39,2.39-3.82c0.48-1.67,0.24-3.58-0.96-5.02c-1.43-1.43-3.58-2.39-5.73-2.15c-2.63,0-5.25,0.72-7.4,2.39
		c-1.91,1.19-3.34,3.34-4.06,5.49c-0.48,1.43-0.48,2.63,0,4.06c0.96,1.91,2.15,3.82,3.58,5.25c-2.39,1.43-4.54,2.87-6.69,4.78
		C175.49,137.64,174.54,139.07,173.82,140.75z M184.09,120.69c0.48-1.19,1.43-2.39,2.63-3.34c1.43-0.96,2.87-1.43,4.54-1.43
		c1.43-0.24,2.63,0.48,3.58,1.43c0.48,1.43,0.48,2.87,0,4.06s-1.19,2.39-1.91,3.34c-1.43,1.67-3.1,3.1-5.01,4.3l-2.63-3.58
		c-0.72-0.72-0.96-1.43-1.19-2.39C183.85,122.36,183.85,121.4,184.09,120.69z M177.64,140.51c0.48-1.43,1.43-3.1,2.39-4.3
		c1.19-1.43,2.63-2.63,4.06-3.58h0.24c1.91,1.91,3.58,4.3,4.54,6.69c0.24,0.96,0.24,2.15,0,3.1c-0.48,1.43-1.43,2.63-2.63,3.58
		c-1.43,0.96-3.1,1.43-4.78,1.43c-1.67,0-3.1-0.72-3.82-1.91C176.92,143.85,176.92,142.18,177.64,140.51z"/>
	<path class="st0" d="M206.78,148.63c3.58,0,6.93-1.43,9.31-4.06c2.15-1.91,3.82-4.54,4.78-7.4c0.96-2.15,0.72-4.78-0.48-6.93
		c-0.96-1.91-2.87-2.87-5.01-2.87c-2.63,0.24-5.25,0.96-7.4,2.39c1.19-2.15,2.39-4.06,3.82-5.73c1.43-1.67,3.1-3.34,4.78-4.54
		c1.43-1.19,3.1-2.15,4.78-2.87c1.91-0.72,3.82-0.96,5.73-1.19v-0.96l-1.43-0.24c-1.91,0-4.06,0.24-5.97,0.96
		c-2.63,1.19-5.02,2.63-7.4,4.3c-2.87,2.15-5.25,4.54-7.4,7.16c-1.91,2.39-3.34,5.25-4.3,8.36c-1.67,3.82-1.19,8.12,1.19,11.46
		C202.95,147.91,204.87,148.86,206.78,148.63z M205.1,136.92c0.24-1.19,0.96-3.1,1.91-5.25c1.19-0.96,2.39-1.67,3.58-2.39
		c0.72-0.24,1.43-0.24,2.15,0c1.91,0,3.58,1.19,3.82,3.1c0.48,2.39,0.48,5.01-0.48,7.4c-0.48,2.15-1.67,4.06-3.34,5.73
		c-1.19,0.96-2.87,1.91-4.54,1.91c-0.96,0-1.91-0.48-2.63-1.19c-0.72-1.19-1.19-2.87-1.19-4.3
		C204.39,140.27,204.63,138.6,205.1,136.92z"/>
	<path class="st0" d="M0,0v500h500V0H0z M390.66,207.85c0,37.25-8.12,74.03-23.88,107.7c-21.49,44.9-58.27,81.91-109.14,110.33
		l-7.4,4.06l-7.4-4.06c-50.87-28.42-87.4-65.67-109.14-110.33c-16-33.67-24.36-70.69-24.36-107.94V88.69l11.46-2.63
		c41.79-10.51,84.78-16,127.76-16c44.42,0,88.36,5.73,131.34,16.72l10.75,2.87V207.85z"/>
	<path class="st0" d="M223.97,139.55h14.09l-2.63,8.6h4.06l2.63-8.6h4.54l0.96-3.34v-0.24h-4.54l6.45-21.49h-2.63l-21.97,21.97
		L223.97,139.55z M244.03,119.73l-4.78,16.48h-11.7L244.03,119.73z"/>
	<path class="st0" d="M170,147.19c-0.96,0.24-1.91,0.24-2.87,0c-0.48-0.24-0.72-0.48-0.72-0.96c0-1.19,0.24-2.39,0.72-3.58
		l8.36-27.94h-0.72l-9.31,3.82l0.24,0.96c0.72-0.24,1.67-0.72,2.63-0.72c0.24-0.24,0.72-0.24,0.96,0c0.24,0.48,0.24,0.72,0,1.19
		c-0.24,1.67-0.48,3.34-0.96,4.78l-5.25,17.91c-0.24,1.19-0.48,2.39-1.19,3.58c-0.24,0.48-0.96,0.72-1.43,0.96
		c-0.96,0.24-2.15,0.24-3.1,0v0.96H170V147.19z"/>
	<path class="st0" d="M124.39,100.15v107.46c-0.24,35.1,7.4,69.73,22.45,101.49c25.79,52.54,68.78,84.54,103.17,103.64
		c34.39-19.34,77.37-50.87,103.17-103.64c15.04-31.76,22.93-66.39,22.93-101.49V101.1C293.7,79.61,207.01,79.37,124.39,100.15z
		 M237.1,378.12l-5.73,1.43v-80c0-1.67,1.19-3.1,2.87-3.1s2.87,1.43,2.87,3.1V378.12z M250.48,374.54l-5.73,1.43v-76.42
		c0-1.67,1.19-2.87,2.87-2.87c1.67,0,2.87,1.19,2.87,2.87C250.48,299.55,250.48,374.54,250.48,374.54z M286.3,234.12v22.21
		c-3.34,3.1-5.25,7.64-5.49,12.18v47.76l-10.03,3.1v-45.13h-10.03v-10.03h-38.69v10.03h-8.36v68.06l-8.6,4.3v-10.27l-13.13-36.78
		l-13.61,36.78v10.51c-10.03-12.42-18.87-26.03-25.79-40.6c-9.31-20.06-15.76-41.31-18.87-63.05c13.13-7.64,28.18-11.7,43.46-11.7
		c21.73,1.19,43.22,5.97,63.52,14.09c-17.83-8.15-36.15-15.31-54.78-21.36c4.98-2.57,18.24-9.45,30.18-15.89
		c16.48-8.6,36.06-8.84,52.54-0.72l-6.45-10.51l27.15,12.42l-3.98,22.45v0.72L286.3,234.12z M293.7,252.75
		c-1.43,0.24-2.87,0.72-4.3,1.43v-20.06c1.43-0.72,2.87-1.43,4.3-1.91V252.75z M290.44,229.07c2.55-1.25,5.13-2.17,7.93-2.8
		C295.64,226.91,292.99,227.85,290.44,229.07z M301.1,251.55l-4.3,0.48v-20.78l4.3-0.72V251.55z M308.99,251.79l-2.15-0.24h-2.39
		V230.3h4.54V251.79z M306.84,225.28c-0.24,0-0.49,0.02-0.73,0.03c0.17-0.01,0.32-0.02,0.49-0.03H306.84
		c0.84-0.03,1.71-0.02,2.61,0.02C308.58,225.27,307.71,225.26,306.84,225.28z M316.39,252.51l-4.3-0.96v-21.02
		c1.43,0,2.87,0.48,4.3,0.72V252.51z M324.03,254.66l-4.3-1.43c0,0,0-0.48,0-0.48v-20.54c1.43,0.48,2.87,0.96,4.3,1.91V254.66z
		 M369.88,105.4v102.21c0,10.03-0.72,20.06-2.15,30.09l-35.58-17.19l1.19,6.21l33.91,14.57c-2.87,20.3-8.36,39.88-16.72,58.51
		c-5.97,0.72-11.94,1.91-17.67,2.87v-34.87c-0.24-4.54-2.39-8.6-5.73-11.7v-22.45l0.96-1.43v-0.96c-2.79-1.82-5.88-3.24-9.1-4.25
		c3.23,0.99,6.39,2.38,9.1,4.25l-21.25-120.36l-16.02,90.26l-39.62-19.81l-74.1,40.11c-4.66-1.41-9.33-2.78-14.02-4.05l-30.33,18.39
		c-1.19-9.07-1.67-18.39-1.67-27.46V104.69C209.4,84.63,291.55,84.86,369.88,105.4z"/>
</g>
</svg>
