<svg xmlns="http://www.w3.org/2000/svg" viewBox="0 0 501 501"><defs><style>.cls-1{fill:#fff;stroke:#000;stroke-miterlimit:10;}</style></defs><title>guida</title><g id="Layer_2" data-name="Layer 2"><g id="Layer_1-2" data-name="Layer 1"><path class="cls-1" d="M.5.5v500h500V.5ZM137.75,235.68V395.34a26.54,26.54,0,0,1-26.54-26.54V237.94l-29.69,0a3,3,0,0,1-2.14-5.15l103-103a13.67,13.67,0,0,1,9.69-4l31.84,0-69.41,69.43A57.2,57.2,0,0,0,137.75,235.68Zm51.62,2.49V436.4a26.13,26.13,0,0,1-26.13-26.13V238.17a52.47,52.47,0,0,1,15.69-37.42l70.66-69.46,69.29,65.47a52.46,52.46,0,0,1,16.43,38.13v84.55a26.13,26.13,0,0,1-26.13,26.13V234.89a26.29,26.29,0,0,0-8.25-19.13l-51-48.18-52.7,51.81A26.36,26.36,0,0,0,189.37,238.17Zm229.32-2.76H389.55V337.86a58.19,58.19,0,0,1-58.19,58.2h-92a26.13,26.13,0,0,1-26.13-26.13H318.46a45,45,0,0,0,45-45V229.6a46.79,46.79,0,0,0-14.54-33.89L259,110.18a19.52,19.52,0,0,0-13.45-5.38H206.09l43.6-40.2L421.33,228.84A3.82,3.82,0,0,1,418.69,235.41Z"/></g></g></svg>