<svg xmlns="http://www.w3.org/2000/svg" viewBox="0 0 501 501"><defs><style>.cls-1{fill:#fff;stroke:#000;stroke-miterlimit:10;}</style></defs><title>niamari</title><g id="Layer_2" data-name="Layer 2"><g id="Layer_1-2" data-name="Layer 1"><path class="cls-1" d="M.5.5v500h500V.5ZM197.55,203.88a74.82,74.82,0,0,1,8.93-8.49c1.2-.95,2.46-1.91,3.72-2.77l.1-.06c1.5-1.08,3.23-2.15,5.2-3.29L216,189l.55-.28A48,48,0,0,1,259,187.63a61.77,61.77,0,0,1,24.87,26,62.85,62.85,0,0,1,5.57,16.06c-.5-.95-1-1.91-1.57-2.86A54.73,54.73,0,0,0,275.14,212,68.55,68.55,0,0,0,197,206c-.8.46-1.57,1-2.34,1.44C195.65,206.13,196.6,205,197.55,203.88Zm64.75-22c-.83-.46-1.63-.89-2.43-1.29,1.63.21,3.11.46,4.53.77a72,72,0,0,1,11.82,3.44c1.41.56,2.83,1.17,4.24,1.85l.12.06c1.67.77,3.45,1.7,5.45,2.83l.43.31c.19.12.37.21.56.34a48,48,0,0,1,22.15,36.19A62,62,0,0,1,288,273.74c.58-.89,1.14-1.81,1.72-2.8a54.43,54.43,0,0,0,6.47-18.37A68.47,68.47,0,0,0,262.3,181.88ZM180,249a47.87,47.87,0,0,1,20.29-37.27,61.45,61.45,0,0,1,31.51-8.64c1.14,0,2.27,0,3.38.09a62.19,62.19,0,0,1,16.71,3.2c-1.07,0-2.12-.06-3.29-.06a54.6,54.6,0,0,0-19.14,3.57,68.41,68.41,0,0,0-44.29,64.65c0,1,0,1.85.1,2.77-.62-1.54-1.17-2.95-1.6-4.31a74.29,74.29,0,0,1-2.93-12c-.21-1.5-.4-3.08-.52-4.58v-.13a60.09,60.09,0,0,1-.28-6.15ZM238.7,319.1c.8.46,1.63.9,2.43,1.3-1.63-.22-3.14-.47-4.52-.74a74.34,74.34,0,0,1-11.82-3.48c-1.45-.56-2.89-1.17-4.28-1.85l-.09-.06c-1.69-.77-3.48-1.69-5.45-2.83-.15-.09-.33-.22-.49-.31s-.34-.21-.52-.31a48.07,48.07,0,0,1-22.13-36.22A62.16,62.16,0,0,1,213,227.24c-.59.89-1.18,1.82-1.73,2.8a55.65,55.65,0,0,0-6.49,18.38A68.45,68.45,0,0,0,238.7,319.1Zm-202-69.79c65,70.76,147.26,72.41,147.26,72.41-1.3-1.53-25.38-31.3-22-66.34.53,22.2,12,46.61,31.57,63.11,23.45,19.81,61.32,28.92,96,11.74C212.43,379.92,83.76,319.93,36.72,249.31Zm266.73,47.82a74.71,74.71,0,0,1-8.92,8.49c-1.21,1-2.47,1.88-3.7,2.74l-.12.06c-1.54,1.08-3.23,2.19-5.2,3.33L285,312l-.49.27a48,48,0,0,1-42.4,1.08,61.85,61.85,0,0,1-24.87-26,62.54,62.54,0,0,1-5.57-16.07c.49.92,1,1.88,1.57,2.86A54,54,0,0,0,225.87,289,68.45,68.45,0,0,0,304,295c.83-.49,1.6-1,2.34-1.48C305.36,294.85,304.4,296,303.45,297.13ZM321,252a47.89,47.89,0,0,1-20.28,37.27,61.6,61.6,0,0,1-34.93,8.53,60.83,60.83,0,0,1-16.68-3.2c1.08.06,2.13.06,3.26.09a54.56,54.56,0,0,0,19.18-3.57,68.45,68.45,0,0,0,44.28-64.69c0-.92,0-1.85-.09-2.74.62,1.51,1.14,2.93,1.6,4.28a75,75,0,0,1,2.92,12c.22,1.54.4,3.11.53,4.65v.09c.18,1.85.24,3.85.24,6.12Zm-4-72.7c1.3,1.53,25.38,31.3,22,66.34-.53-22.2-12-46.61-31.57-63.11-23.45-19.81-61.32-28.92-96-11.74,77.08-49.69,205.75,10.3,252.79,80.92C399.26,180.93,317,179.28,317,179.28Z"/></g></g></svg>