<svg xmlns="http://www.w3.org/2000/svg" viewBox="0 0 501 501"><defs><style>.cls-1{fill:#fff;stroke:#000;stroke-miterlimit:10;}</style></defs><title>opshound</title><g id="Layer_2" data-name="Layer 2"><g id="Layer_1-2" data-name="Layer 1"><path class="cls-1" d="M183.9,217.74v4.7h85V206.21H205.28A61,61,0,0,1,183.9,217.74Z"/><path class="cls-1" d="M.5.5v500h500V.5ZM380.24,354l-8.44,57.14H195.33a38,38,0,0,1-2.5-13.12c0-18.86,14.43-34.07,32.32-34.07a32.5,32.5,0,0,1,19.39,6.82h9a47.69,47.69,0,0,1-3-16.77c0-23.58,15.91-43,36.77-47.16a40.42,40.42,0,0,0-8.45-1.05c-23.87,0-43.23,18.86-45.24,43.49l-31.29-19.4L164,410.08H99.89A38.12,38.12,0,0,1,97.4,397c0-18.87,14.43-34.08,32.31-34.08h3L181.41,230.3a8.47,8.47,0,0,1-5.47-7.86v-2.6h-.48c-22.87,4.72-43.76-2.63-46.23-16.26V202a32.51,32.51,0,0,1-3.48-14.14,34.85,34.85,0,0,1,5-17.3h-3.49a12.49,12.49,0,0,1-1.47-5.77c0-7.86,7.45-14.67,16.4-14.67a19.92,19.92,0,0,1,9.93,2.63c2-.54,3.48-1.05,5.46-1.59,8-23,28.35-39.81,52.7-39.81h3.48l-3.48-21.48h1c15.9,0,29.33,14.13,32.32,33.53,6.45,5.23,11.92,12.58,15.89,20.44a67.38,67.38,0,0,1,6,26.72v27.79h4c4,0,7.45,3.65,7.45,7.86V223a9.51,9.51,0,0,1-2,5.23L369.3,329.87c15.91-9.95,26.33-28.3,26.33-49.25,0-1.58-.48-3.67-.48-5.23a69.57,69.57,0,0,1,8.45,31.44C403.6,326.23,394.64,343.5,380.24,354Z"/></g></g></svg>