<svg xmlns="http://www.w3.org/2000/svg" viewBox="0 0 501 501"><defs><style>.cls-1{fill:#fff;stroke:#000;stroke-miterlimit:10;}</style></defs><title>releaf</title><g id="Layer_2" data-name="Layer 2"><g id="Layer_1-2" data-name="Layer 1"><path class="cls-1" d="M.5.5v500h500V.5ZM214.58,397.56c-1.3,2-23.55-3.14-35.55-2.6-13.26.6-15.07,5.22-20.2,4.58-13.85-1.71-23-21.93-23-52.39,0-31.94,29.44-45.79,29.3-34.63-.21,18.25-18.76,25.32,6,55.22C194,395.39,218.09,392.25,214.58,397.56ZM360.74,237.1c-9.56,42.18-26.9,61.91-39.31,74.74-36.34,37.43-121,36.86-140,9.48-6.29-9.67-.62-15.84-6-21.69-7-7.62-18.27-.65-24.36-8.43-27.64-43.29-20.3-108.09,18-144.71,28.64-27.38,64.88-36.82,97.76-41.92,58-8.95,80,3.89,80,3.89C363,110.64,307.5,131.14,251,210.23c-7.57,8.84-19.27,26.46-24,33.75-43,66.66,26.05,70.65,58,57.38,26.22-10.87,50.73-39,63.39-83.33,7.15-25,11.3-37,14.85-37.36S368.94,201,360.74,237.1Z"/><path class="cls-1" d="M299.38,133.2c8.35-8.07-19.22-10.9-43.36-7-25.27,4-44.43,13.09-64.48,33.86-36.85,38.17-30.9,86.9-13.5,91.93,15.91,4.59,21.31-19.64,60.89-62.53C279.57,147,286.9,145.26,299.38,133.2Z"/></g></g></svg>