<svg xmlns="http://www.w3.org/2000/svg" viewBox="0 0 500 500"><defs><style>.cls-1{fill:#fff;}</style></defs><title>sawatch</title><g id="Layer_2" data-name="Layer 2"><g id="Layer_1-2" data-name="Layer 1"><path class="cls-1" d="M150,50V550H650V50ZM267.89,450l-.54.34a12,12,0,0,1-4,1.39l-.33,0a4.73,4.73,0,0,1-.52,0l-.22,0a5.08,5.08,0,0,1-.88.05H227.92a12,12,0,0,1-3.95-.65l-.23-.07-.37-.13a10.27,10.27,0,0,1-5-4,4.48,4.48,0,0,1-.28-.47l-.26-.55-.05,0a8.34,8.34,0,0,1,.72-8.6l144-210.95a10.65,10.65,0,0,1,3.39-3.08l.14-.08.25-.13.18-.09a12.16,12.16,0,0,1,5.46-1.28h.15a6.54,6.54,0,0,1,.7,0A11.71,11.71,0,0,1,379,224a1.64,1.64,0,0,0,.33.26l.2.17a9.38,9.38,0,0,1,1.77,2l98.65,144.2a5.41,5.41,0,0,1,.56.94c.09.17.18.37.28.59a8.33,8.33,0,0,1-.33,7.42,10,10,0,0,1-3.74,3.91l-.18.11-.2.11-.16.09a11.72,11.72,0,0,1-4.64,1.29,3.9,3.9,0,0,1-.58,0H437a12.81,12.81,0,0,1-4.59-.89L432,384a10.63,10.63,0,0,1-4.36-3.55l-21.9-32a4.54,4.54,0,0,0-3.71-1.69,4.09,4.09,0,0,0-1.43.25,3.57,3.57,0,0,0-2.19,1.5l-7.36,10.82a7.26,7.26,0,0,1-1.41,1.52l-.19.16-.13.09-.2.13a8.61,8.61,0,0,1-4,1.6,6.3,6.3,0,0,1-.79,0,1.94,1.94,0,0,1-.34,0,11.24,11.24,0,0,1-1.17,0l-.27-.05a2,2,0,0,1-.42-.07l-.17,0a8.1,8.1,0,0,1-3.74-1.76l-.2-.14-.17-.14-.12-.12a6.42,6.42,0,0,1-1.06-1.24l-20.17-29.46a3.26,3.26,0,0,0-2.77-1.28,3.39,3.39,0,0,0-2.75,1.27L270.8,447.22A9.73,9.73,0,0,1,267.89,450Zm314.9-47.26c-.06.49-.13,1-.22,1.43l0,.2a4.93,4.93,0,0,1-.07.57l-.23,1.37a46.66,46.66,0,0,1-2.75,9c-.09.23-.19.45-.3.74-.48,1.14-1,2.32-1.75,3.69s-1.44,2.55-2.16,3.73a1.91,1.91,0,0,1-.24.34l-.18.25a55.92,55.92,0,0,1-4.65,6.16l-.5.57a55.26,55.26,0,0,1-5.29,5.17c-.12.08-.23.18-.35.27l-.15.15-.15.11a54.83,54.83,0,0,1-5.95,4.38l-.19.11a2.11,2.11,0,0,1-.31.21l-.42.24,0,.06c-.36.23-.74.45-1.18.71l-1.3.74-.26.15c-1.07.59-2.2,1.18-3.4,1.74l-.65.32a63.36,63.36,0,0,1-7.19,2.85,11.21,11.21,0,0,1-1.29.4,62.84,62.84,0,0,1-6.93,1.8l-.19.05-.55.11c-1,.19-2,.39-3,.52l-1,.15c-1.38.2-2.83.36-4.27.44l-.2,0-.65,0c-1.42.12-2.91.18-4.39.18h-.22c-.2,0-.43,0-.63,0l-197.82.1a3.91,3.91,0,0,1-2.49-.87l-.4-.37a3.14,3.14,0,0,1-.56-.79,3.41,3.41,0,0,1,.18-3.55l23-33.76a8.5,8.5,0,0,1,1.63-1.83,1.78,1.78,0,0,1,.27-.21l.26-.2a11.07,11.07,0,0,1,5.51-2.09,3.73,3.73,0,0,1,.57,0l150.09-.09c.65,0,1.26,0,1.8-.07a11,11,0,0,0,1.75-.17,26,26,0,0,0,8.44-2.41l.71-.34a23.09,23.09,0,0,0,7.54-6.34l.9-1.33a11.89,11.89,0,0,0,.75-1.29,18.21,18.21,0,0,0,1.31-3.11,16.88,16.88,0,0,0,.67-3.62c0-.45,0-.88,0-1.37a16.72,16.72,0,0,0-2.26-8.17,7.3,7.3,0,0,0-.52-.9L393,191.81a8.68,8.68,0,0,1-.77-8.7,2.2,2.2,0,0,1,.24-.51c.17-.32.36-.63.53-.89l21.28-31.16a5.34,5.34,0,0,1,2.85-2.08l1.92-.33a5.8,5.8,0,0,1,4.8,2.41L574.4,370.67a6.33,6.33,0,0,1,.36.54l.32.48c.1.16.2.32.3.46a52.59,52.59,0,0,1,3.92,7.43c.07.16.13.29.19.45l.06.19a45.36,45.36,0,0,1,2.7,8.91c0,.26.09.54.15.81l.14.88c0,.25.06.49.09.66.07.49.13,1,.19,1.47.15,1.57.24,3.17.24,4.76A46.72,46.72,0,0,1,582.79,402.72Z" transform="translate(-150 -50)"/></g></g></svg>