<?xml version="1.0" encoding="utf-8"?>
<!-- Generator: Adobe Illustrator 23.0.1, SVG Export Plug-In . SVG Version: 6.00 Build 0)  -->
<svg version="1.1" id="Layer_1" xmlns="http://www.w3.org/2000/svg" xmlns:xlink="http://www.w3.org/1999/xlink" x="0px" y="0px"
	 viewBox="0 0 500 500" style="enable-background:new 0 0 500 500;" xml:space="preserve">
<style type="text/css">
	.st0{fill:#FFFFFF;}
</style>
<path class="st0" d="M0,0v500h500V0H0z M224.48,66.56h21.46c-0.39,0.58-0.77,1.35-0.97,1.93c-1.16,2.9-1.93,5.8-1.93,8.7
	c0,1.55,0.19,3.29,0.39,4.83c0.39,3.29,1.74,6.38,3.29,9.28c1.35,2.32,2.51,4.83,3.48,7.35c1.35,3.29,1.74,6.57,1.35,10.05
	c-0.39,3.29-1.74,5.99-3.48,8.51c0,0.19-0.19,0.58-0.39,0.58h-23.2V66.56z M224.29,224.48h24.17c0,0.19,0,0.39,0,0.77
	c0.77,4.06,1.74,7.93,2.51,11.99c0.39,1.74,0.77,3.67,0.77,5.61c0,1.55-0.39,3.29-1.93,4.25c-1.16,0.77-2.71,0.97-4.06,1.16
	c-0.77,0.19-0.77,0.39-0.77,0.97c0.77,2.51,1.35,5.03,2.13,7.73c1.35,5.03,2.71,10.25,4.25,15.27c0.39,0.97,0.77,2.13,0.97,3.09
	h-28.03V224.48z M247.87,433.44h-23.01v-51.23h23.01V433.44z M275.13,433.44h-23.01v-51.23h23.01V433.44z M275.13,275.33h-18.75
	c0-0.19,0-0.39,0-0.58c-1.16-4.45-2.51-8.89-3.67-13.34c-0.77-3.29-1.74-6.38-2.51-9.47c0-0.19,0.19-0.77,0.39-0.77
	c3.48-1.55,5.22-4.45,5.41-8.31c0.19-2.13-0.39-4.06-0.77-6.19c-0.77-4.06-1.74-8.12-2.51-12.18h22.43V275.33z M275.71,117.79
	h-23.01c3.29-5.22,3.87-11.02,2.51-17.21c-0.97-4.45-3.09-8.51-5.22-12.37c-1.93-3.48-3.09-7.35-2.71-11.41
	c0.19-2.71,1.16-5.41,2.32-7.93c0.39-0.77,0.77-1.35,1.16-2.13h24.94V117.79z"/>
</svg>
