<svg xmlns="http://www.w3.org/2000/svg" viewBox="0 0 501 501"><defs><style>.cls-1{fill:#fff;stroke:#000;stroke-miterlimit:10;}</style></defs><title>therange</title><g id="Layer_2" data-name="Layer 2"><g id="Layer_1-2" data-name="Layer 1"><path class="cls-1" d="M.5.5v500h500V.5ZM157.68,143.92H293V160H214.35V268.15H198V160H157.68ZM255,401.77c-1.56.06-3.09.08-4.64.08a151.33,151.33,0,0,1-128-232.19l12.14,7.66A137,137,0,0,0,244,387.35V307.58h16.06v79.58a135.3,135.3,0,0,0,57-16.81l7,12.55A152.07,152.07,0,0,1,255,401.77Zm-57-68.86V307.58h16.36v25.33ZM352.8,386.25l-47.77-91H150.64V278.9H305.92a34.63,34.63,0,0,0,5.68-.43,35.64,35.64,0,0,0,8.62-2.48,37.84,37.84,0,0,0,11.64-8,36.13,36.13,0,0,0,8-11.47,34.55,34.55,0,0,0,3-14.14,35.37,35.37,0,0,0-3-14.27,38.37,38.37,0,0,0-19.62-19.59,34.42,34.42,0,0,0-8.77-2.53,34.78,34.78,0,0,0-5.53-.41H260.06v62.53H244V189.56h61.92A52.31,52.31,0,0,1,343.38,205a56.64,56.64,0,0,1,11.35,16.79,51.42,51.42,0,0,1,4.12,20.47,52.56,52.56,0,0,1-2.63,16.64,56.77,56.77,0,0,1-7.69,14.59A51.27,51.27,0,0,1,336.89,285,52.2,52.2,0,0,1,322,292.7L371,386.25Zm28.86-59.82-12.43-7.21a136.61,136.61,0,0,0,18.43-72.8c-2.26-75.51-65.59-135.08-141.25-132.86a136.69,136.69,0,0,0-53.06,12.35l-6-13A150.84,150.84,0,0,1,246,99.22C329.57,96.73,399.53,162.57,402,246A150.86,150.86,0,0,1,381.66,326.43Z"/></g></g></svg>